<svg width="252" height="36" viewBox="0 0 252 36" fill="none" xmlns="http://www.w3.org/2000/svg">
<mask id="mask0_118_34" style="mask-type:luminance" maskUnits="userSpaceOnUse" x="0" y="0" width="252" height="36">
<path d="M4.23589 0H247.041C249.384 0 251.277 1.94149 251.277 4.34347V30.9519C251.277 33.3539 249.384 35.2954 247.041 35.2954H4.23589C1.90554 35.2954 0 33.3539 0 30.9519V4.34347C0 1.95394 1.89341 0 4.23589 0Z" fill="white"/>
</mask>
<g mask="url(#mask0_118_34)">
<path d="M74.0371 87.6537C69.425 72.7689 55.1394 55.6688 42.0555 49.2842C9.55196 33.4287 -11.3726 11.8856 -19.6624 -10.5536C-17.6233 -11.375 -14.3948 -12.1218 -11.4212 -11.624C-10.1953 -11.4124 -6.90612 -11.2133 -1.95413 -6.98179C10.7536 3.87067 11.6639 24.6173 35.198 30.3547C35.5378 30.4418 38.1594 31.064 38.5964 31.1512C54.0956 34.2625 64.6429 35.7311 74.7289 47.1934C79.2318 52.296 81.9991 57.9338 82.788 65.1024C83.5891 72.4453 81.6107 77.6475 77.4719 83.5716C76.331 85.2019 75.2144 86.5336 74.0492 87.6288" fill="#E7388B"/>
<path d="M0.327682 42.9868C-4.28447 28.102 -18.57 11.0019 -31.6539 4.61737C-64.1696 -11.2257 -85.0942 -32.7689 -93.3839 -55.2081C-91.3449 -56.0295 -88.1164 -56.7762 -85.1427 -56.2784C-83.9169 -56.0668 -80.6277 -55.8677 -75.6757 -51.6362C-62.968 -40.7837 -62.0577 -20.0371 -38.5236 -14.2998C-38.1838 -14.2126 -35.5621 -13.5904 -35.1252 -13.5032C-19.6259 -10.3919 -9.07868 -8.92331 1.00736 2.53898C5.51028 7.64163 8.27758 13.2794 9.0665 20.448C9.86755 27.7784 7.88918 32.9931 3.75038 38.9171C2.60948 40.5475 1.49286 41.8791 0.327682 42.9744" fill="#EC7B1C"/>
<path d="M15.6812 25.0279C19.8322 27.7908 23.7404 30.9395 27.3451 34.4242C33.9963 40.8585 38.9605 49.0725 42.7473 57.5479C43.2328 58.6182 43.694 59.701 44.1431 60.7962C44.5436 61.7545 44.932 62.7252 45.3082 63.696C45.5753 64.368 45.8423 65.401 45.8423 65.401C45.8423 65.401 36.266 72.9679 22.8422 70.4912C14.2733 68.9106 6.74824 63.2977 1.58992 56.2163C-0.971041 52.6942 -3.10719 48.8485 -5.08556 44.9531C-9.12726 36.988 -12.3558 28.6122 -15.026 20.0746C-15.0988 19.863 -15.1595 19.6514 -15.2323 19.4399C-16.713 14.6359 -18.0845 9.67014 -21.0096 5.62536C-26.1073 -1.43123 -34.8339 -4.36836 -42.6503 -7.94021C-45.539 -9.25943 -48.4276 -10.7653 -50.5516 -13.1673C-55.358 -18.6309 -54.2656 -28.3508 -48.3791 -32.5574C-39.082 -13.8269 -24.4687 2.09085 -6.79692 12.7317C-1.04387 16.204 5.13399 18.8051 10.9477 22.1405C12.5498 23.0615 14.1155 24.0322 15.657 25.0528" fill="#235E9C"/>
<path d="M10.8992 79.4642C7.88921 82.6627 5.4739 86.4462 3.79896 90.5407C1.91769 95.1331 1.35937 99.7504 -1.94196 103.646C-8.09553 110.914 -18.9826 112.656 -27.2359 108.313C-35.6349 103.895 -42.3711 96.8008 -48.464 89.5451C-53.5738 83.4593 -60.6862 76.5396 -61.9606 68.2633C-62.8951 62.1899 -59.1083 55.5067 -52.6513 55.6436C-45.7574 55.7929 -40.1742 60.0244 -33.6687 55.6436C-25.5974 50.2174 -23.5948 39.3649 -17.332 32.3083C-12.4892 26.8572 -6.27495 23.8703 0.970982 24.0196C13.3388 24.2934 28.3162 33.3413 31.1199 46.3842C32.5642 53.1172 30.8407 60.4849 26.5684 65.8115C22.7088 70.6155 17.1378 73.59 12.6227 77.7468C12.028 78.2944 11.4454 78.8669 10.8992 79.4642Z" fill="#00A8C7"/>
<path d="M177.228 -52.3706C181.84 -37.4858 196.126 -20.3857 209.21 -14.0012C241.713 1.85436 262.638 23.3975 270.927 45.8367C268.888 46.6581 265.66 47.4048 262.698 46.907C261.472 46.6954 258.183 46.4963 253.219 42.2648C240.511 31.4124 239.601 10.6658 216.067 4.9284C215.727 4.84128 213.106 4.21901 212.669 4.13189C197.169 1.02052 186.622 -0.448047 176.536 -11.9103C172.033 -17.013 169.266 -22.6508 168.477 -29.8194C167.676 -37.1622 169.654 -42.3644 173.793 -48.2885C174.934 -49.9188 176.051 -51.2505 177.228 -52.3457" fill="#EC7B1C"/>
<path d="M250.949 -7.71619C255.562 7.16861 269.847 24.2687 282.931 30.6532C315.435 46.5088 336.359 68.0519 344.649 90.4911C342.61 91.3125 339.381 92.0593 336.42 91.5614C335.194 91.3499 331.905 91.1507 326.941 86.9193C314.233 76.0668 313.323 55.3202 289.789 49.5828C289.449 49.4957 286.827 48.8734 286.39 48.7863C270.891 45.6749 260.344 44.2064 250.258 32.7441C245.755 27.6414 242.987 22.0036 242.198 14.835C241.397 7.49219 243.376 2.28998 247.515 -3.64651C248.656 -5.27687 249.772 -6.60854 250.949 -7.70374" fill="#00A8C7"/>
<path d="M235.596 10.2551C231.445 7.49224 227.537 4.34354 223.932 0.858801C217.281 -5.57551 212.317 -13.7895 208.53 -22.2649C208.044 -23.3352 207.583 -24.418 207.134 -25.5132C206.734 -26.4715 206.345 -27.4422 205.969 -28.413C205.702 -29.085 205.435 -30.118 205.435 -30.118C205.435 -30.118 215.011 -37.6849 228.435 -35.2082C237.004 -33.6276 244.529 -28.0147 249.687 -20.9208C252.248 -17.3987 254.384 -13.5531 256.363 -9.65763C260.404 -1.69252 263.633 6.68329 266.303 15.2209C266.376 15.4325 266.437 15.644 266.509 15.8556C267.99 20.6596 269.362 25.6253 272.287 29.6701C277.384 36.7267 286.111 39.6638 293.928 43.2357C296.816 44.5549 299.705 46.0608 301.829 48.4628C306.623 53.9263 305.543 63.6463 299.656 67.8528C290.359 49.1224 275.746 33.2046 258.074 22.5637C252.321 19.0914 246.143 16.4903 240.33 13.1549C238.727 12.234 237.162 11.2632 235.62 10.2303" fill="#235E9C"/>
<path d="M240.366 -44.1939C243.376 -47.3924 245.791 -51.1758 247.466 -55.2704C249.347 -59.8627 249.906 -64.48 253.207 -68.3754C259.361 -75.6436 270.248 -77.386 278.501 -73.0425C286.9 -68.6244 293.636 -61.5304 299.729 -54.2747C304.839 -48.1889 311.951 -41.2692 313.226 -32.9929C314.16 -26.9195 310.373 -20.2363 303.916 -20.3732C297.022 -20.5226 291.439 -24.754 284.934 -20.3732C276.862 -14.947 274.86 -4.09452 268.597 2.96207C263.766 8.41319 257.54 11.4001 250.294 11.2508C237.926 10.977 222.949 1.92909 220.145 -11.1138C218.701 -17.8468 220.424 -25.2145 224.697 -30.5412C228.556 -35.3451 234.127 -38.3196 238.642 -42.4764C239.237 -43.024 239.82 -43.5965 240.366 -44.1939Z" fill="#E7388B"/>
</g>
</svg>
