<svg width="33" height="33" viewBox="0 0 33 33" fill="none" xmlns="http://www.w3.org/2000/svg">
<path fill-rule="evenodd" clip-rule="evenodd" d="M33 16.0734C33 24.9518 25.7474 32.1467 16.7998 32.1467C14.0621 32.1533 11.3678 31.4629 8.97065 30.1405L0 33L2.92872 24.3753C1.40335 21.8749 0.597397 19.0023 0.599581 16.0734C0.599581 7.19497 7.8522 0 16.7998 0C25.7474 0 33 7.19497 33 16.0734ZM16.7998 2.55975C9.28197 2.55975 3.17086 8.62474 3.17086 16.0734C3.1664 18.9233 4.07567 21.6996 5.7652 23.9948L4.0587 29.0105L9.2935 27.3501C11.5206 28.8096 14.1255 29.5871 16.7883 29.587C24.2945 29.587 30.4172 23.522 30.4172 16.0734C30.4172 8.62474 24.3176 2.55975 16.7998 2.55975ZM24.9864 19.7746C24.8826 19.6132 24.6174 19.5094 24.2254 19.3134C23.8333 19.1174 21.8732 18.1604 21.5157 18.0335C21.1583 17.9067 20.8816 17.8375 20.6164 18.2296C20.3512 18.6216 19.5901 19.5094 19.3595 19.7746C19.1289 20.0398 18.8983 20.0744 18.4948 19.8784C18.0912 19.6824 16.8113 19.2673 15.3008 17.9182C14.4321 17.1216 13.6861 16.2007 13.087 15.1855C12.8564 14.7935 13.0639 14.5744 13.26 14.3784C13.4329 14.2055 13.6635 13.9172 13.8595 13.6866C14.0221 13.486 14.1578 13.2651 14.2631 13.0293C14.3186 12.9212 14.3447 12.8003 14.3386 12.6788C14.3326 12.5573 14.2946 12.4396 14.2285 12.3375C14.1363 12.1415 13.3291 10.2044 13.0063 9.4088C12.6834 8.61321 12.3491 8.6478 12.1069 8.6478C11.8867 8.65796 11.6672 8.68106 11.4497 8.71698C11.4497 8.71698 10.6541 8.82075 10.2851 9.21279C9.91614 9.60482 8.90147 10.5618 8.90147 12.499C8.90147 14.4361 10.3197 16.3155 10.5273 16.5692C10.7348 16.8228 13.2715 20.9392 17.3071 22.5189C21.3428 24.0985 21.3428 23.5681 22.0692 23.499C22.7956 23.4298 24.4214 22.5419 24.7442 21.631C25.0671 20.7201 25.0786 19.9361 24.9864 19.7746Z" fill="white"/>
</svg>
