<svg width="23" height="22" viewBox="0 0 23 22" fill="none" xmlns="http://www.w3.org/2000/svg">
<path d="M14.9495 21.9992L7.14976 19.2693L1.55507 21.434C1.1718 21.5824 0.816806 21.54 0.490084 21.3066C0.163361 21.0733 0 20.7541 0 20.3492V3.29994C0 3.0432 0.0687896 2.81278 0.206368 2.60869C0.34373 2.4046 0.536666 2.25673 0.785174 2.16508L7.14976 0L14.9495 2.72991L20.5442 0.565157C20.9275 0.416745 21.2825 0.452928 21.6092 0.673704C21.9359 0.89448 22.0993 1.20322 22.0993 1.59992V18.7493C22.0993 19.0143 22.0243 19.2467 21.8744 19.4467C21.7242 19.6467 21.5209 19.7925 21.2644 19.8841L14.9495 21.9992ZM13.9745 19.6144V4.40491L8.12473 2.35975V17.5692L13.9745 19.6144ZM15.9245 19.6144L20.1493 18.2143V2.80986L15.9245 4.40491V19.6144ZM1.94994 19.1893L6.1748 17.5692V2.35975L1.94994 3.78483V19.1893Z" fill="#001C3C"/>
</svg>
