<svg width="33" height="42" viewBox="0 0 33 42" fill="none" xmlns="http://www.w3.org/2000/svg">
<path d="M16.5 20.625C17.6344 20.625 18.6055 20.2211 19.4133 19.4133C20.2211 18.6055 20.625 17.6344 20.625 16.5C20.625 15.3656 20.2211 14.3945 19.4133 13.5867C18.6055 12.7789 17.6344 12.375 16.5 12.375C15.3656 12.375 14.3945 12.7789 13.5867 13.5867C12.7789 14.3945 12.375 15.3656 12.375 16.5C12.375 17.6344 12.7789 18.6055 13.5867 19.4133C14.3945 20.2211 15.3656 20.625 16.5 20.625ZM16.5 35.7844C20.6938 31.9344 23.8047 28.4367 25.8328 25.2914C27.8609 22.1461 28.875 19.3531 28.875 16.9125C28.875 13.1656 27.6805 10.0977 25.2914 7.70859C22.9023 5.31953 19.9719 4.125 16.5 4.125C13.0281 4.125 10.0977 5.31953 7.70859 7.70859C5.31953 10.0977 4.125 13.1656 4.125 16.9125C4.125 19.3531 5.13906 22.1461 7.16719 25.2914C9.19531 28.4367 12.3062 31.9344 16.5 35.7844ZM16.5 41.25C10.9656 36.5406 6.83203 32.1664 4.09922 28.1273C1.36641 24.0883 0 20.35 0 16.9125C0 11.7562 1.65859 7.64844 4.97578 4.58906C8.29297 1.52969 12.1344 0 16.5 0C20.8656 0 24.707 1.52969 28.0242 4.58906C31.3414 7.64844 33 11.7562 33 16.9125C33 20.35 31.6336 24.0883 28.9008 28.1273C26.168 32.1664 22.0344 36.5406 16.5 41.25Z" fill="white"/>
</svg>
