<svg width="31" height="33" viewBox="0 0 31 33" fill="none" xmlns="http://www.w3.org/2000/svg">
<path fill-rule="evenodd" clip-rule="evenodd" d="M4.00696 16.0605C4.46491 17.4725 7.05997 19.8386 8.05219 20.0676C8.51015 19.6096 8.6628 19.2662 9.34972 18.9609C9.98277 18.6726 10.6909 18.5925 11.3723 18.7319C12.708 19.0754 13.3186 19.8768 13.7384 21.1743C16.5243 20.9835 18.0508 21.5559 21.1038 19.8768C23.4368 18.6572 25.1897 16.5607 25.977 14.0486C26.7642 11.5366 26.5213 8.81467 25.3017 6.4817C24.0821 4.14873 21.9856 2.3958 19.4736 1.60855C16.9615 0.821289 14.2396 1.06419 11.9066 2.28381C11.4312 2.51983 10.9722 2.78757 10.5328 3.08523C10.1017 3.38534 9.69355 3.71699 9.31156 4.07746C5.30449 8.0082 6.67834 12.1679 6.18223 13.9234C5.68611 15.6026 4.2741 15.8697 4.00696 16.0605ZM20.8367 7.55025C20.9901 7.49782 21.1524 7.47637 21.3142 7.48715C21.476 7.49793 21.6341 7.54072 21.7792 7.61305C21.9243 7.68538 22.0537 7.7858 22.1597 7.9085C22.2657 8.03119 22.3463 8.17372 22.3969 8.3278C22.4474 8.48189 22.4668 8.64447 22.454 8.80612C22.4412 8.96777 22.3964 9.12527 22.3223 9.26949C22.2482 9.41371 22.1462 9.54178 22.0221 9.64626C21.8981 9.75075 21.7546 9.82958 21.5999 9.87817C21.2925 9.97475 20.9594 9.94629 20.6728 9.79897C20.3862 9.65165 20.1691 9.39733 20.0688 9.09111C19.9684 8.7849 19.9927 8.45146 20.1364 8.16304C20.2801 7.87462 20.5317 7.65446 20.8367 7.55025ZM13.3568 7.55025C14.8833 7.01598 15.6466 9.30573 14.1582 9.87817C12.6699 10.4506 11.7921 8.12269 13.3568 7.55025ZM13.3568 12.5114C13.9674 12.2443 14.1582 12.9312 14.3872 13.2746C15.9137 15.5262 19.2338 15.3736 20.5695 13.3128C20.7985 12.9693 20.9893 12.2824 21.5999 12.5114C23.3936 13.0838 18.4706 18.7319 14.1201 14.8393C13.8147 14.534 12.2882 12.9312 13.3568 12.5114Z" fill="white"/>
<path fill-rule="evenodd" clip-rule="evenodd" d="M7.5562 21.2502C7.5562 21.5555 7.47987 21.5555 7.47987 21.7463C7.47987 24.9138 11.6778 26.0969 13.3188 23.4637C13.5264 23.1519 13.6692 22.8014 13.7385 22.4333H16.2954C16.4099 23.769 18.2799 25.6008 20.646 24.6467C21.2157 24.4069 21.7013 24.0031 22.0411 23.4867C22.3808 22.9703 22.5594 22.3645 22.5541 21.7463C22.5155 21.3736 22.4518 21.0038 22.3633 20.6396C23.0545 20.1591 23.7054 19.623 24.3096 19.0368C24.4291 18.8666 24.5702 18.7126 24.7294 18.5789C25.7262 17.4116 26.4905 16.0644 26.981 14.6099C28.0114 11.4043 27.4389 7.43537 25.4545 4.80215L24.5386 3.65727C23.7478 2.81766 22.8496 2.08624 21.8672 1.482C18.7378 -0.273479 15.5703 -0.426129 12.1739 0.795074C8.7774 2.01628 6.06785 5.41275 5.34276 8.96187C5.26644 9.3435 5.26644 9.61064 5.19011 10.0686C5.03746 11.1371 5.19011 13.1979 5.03746 13.6559C4.93188 13.9445 4.76226 14.2055 4.54135 14.4191C3.54912 15.2969 2.25159 14.381 2.74771 16.1364C3.05301 17.1668 3.96891 18.3499 4.73216 19.1131C5.34872 19.754 6.0407 20.3179 6.79294 20.7923C7.02192 20.9449 7.25089 21.0594 7.5562 21.2502ZM4.00707 16.0601C4.27421 15.8693 5.68623 15.6022 6.18234 13.8848C6.67846 12.1675 5.3046 7.96965 9.31168 4.0389C9.68565 3.66939 10.0946 3.33708 10.5329 3.04667C10.9581 2.727 11.4192 2.45805 11.9067 2.24525C14.2397 1.02563 16.9616 0.782729 19.4737 1.56999C21.9858 2.35724 24.0822 4.11017 25.3018 6.44314C26.5214 8.77611 26.7643 11.498 25.9771 14.0101C25.1898 16.5222 23.4369 18.6186 21.1039 19.8382C18.0509 21.5555 16.5244 20.9449 13.7385 21.1357C13.3188 19.8764 12.7081 19.0368 11.3725 18.6933C10.6921 18.5325 9.97702 18.6135 9.34984 18.9223C8.70107 19.2276 8.51026 19.5329 8.05231 20.029C7.09824 19.8382 4.46502 17.4721 4.00707 16.0601Z" fill="#001C3C"/>
<path fill-rule="evenodd" clip-rule="evenodd" d="M0 26.898C0 27.127 1.60283 31.821 1.83181 32.3935C2.06078 32.9659 2.13711 32.8896 3.32015 32.8896C3.85442 32.8896 3.85442 32.5461 3.96891 32.1263C4.0834 31.7065 4.19789 31.4012 4.31238 31.0578C4.42686 30.7143 4.54135 30.3327 4.65584 29.9892L5.07563 28.8825L5.38093 29.9892C5.57174 30.638 5.87704 31.5157 6.06786 32.1263C6.11439 32.31 6.17829 32.4889 6.25867 32.6606C6.41132 33.0041 7.02192 32.8896 7.51803 32.8896C8.20496 32.8896 8.12864 32.6606 8.43394 31.7065L10.0368 26.9362C10.0378 26.9008 10.0316 26.8656 10.0186 26.8327C10.0055 26.7998 9.9859 26.77 9.96088 26.745C9.93586 26.7199 9.90598 26.7003 9.8731 26.6872C9.84021 26.6742 9.805 26.668 9.76963 26.6691H8.54843C8.31945 26.6691 8.1668 27.356 8.12864 27.585C8.09551 27.7677 8.04438 27.9466 7.97599 28.1192C7.90759 28.2919 7.85646 28.4708 7.82334 28.6535C7.7041 28.9916 7.6022 29.3355 7.51803 29.6839L7.21273 30.7143V30.7525L6.02969 27.0507C5.95337 26.8599 5.91521 26.6691 5.68623 26.6691H4.42686C4.12156 26.6691 4.04524 27.127 3.93075 27.5468L3.28198 29.6457C3.15011 29.9926 3.04797 30.3501 2.97668 30.7143H2.90036C2.88526 30.5279 2.83338 30.3463 2.74771 30.18L1.83181 27.0507C1.79364 26.8599 1.71732 26.6691 1.48834 26.6691H0.228976C0.171933 26.6791 0.119368 26.7065 0.0784087 26.7475C0.0374491 26.7884 0.0100759 26.841 0 26.898Z" fill="#001C3C"/>
<path fill-rule="evenodd" clip-rule="evenodd" d="M10.1896 29.6083C10.1896 30.6769 10.3422 31.3638 11.1436 32.127C11.4114 32.382 11.7212 32.5886 12.0595 32.7376C12.4374 32.9043 12.8449 32.9935 13.2578 33.0001C13.6707 33.0066 14.0808 32.9304 14.4638 32.7758C14.7854 32.6372 15.0627 32.4127 15.2652 32.127C15.2652 33.0048 15.227 32.8903 16.5246 32.8903C16.7154 32.8903 16.9062 32.814 16.9062 32.585V26.9369C16.9072 26.9016 16.9011 26.8663 16.888 26.8335C16.875 26.8006 16.8553 26.7707 16.8303 26.7457C16.8053 26.7207 16.7754 26.701 16.7425 26.688C16.7096 26.6749 16.6744 26.6687 16.6391 26.6698H15.4942C15.3797 26.6698 15.2652 26.8224 15.2652 26.9369V27.433C15.1889 27.3949 15.1889 27.3567 15.1507 27.2804C15.1126 27.2041 15.0744 27.2041 14.9981 27.1277C14.0058 26.1355 11.7924 26.4026 10.762 27.891C10.3975 28.3901 10.1975 28.9903 10.1896 29.6083ZM11.8687 29.8754V29.6465C11.8687 28.12 13.815 27.5475 14.7691 28.5016C14.9507 28.6858 15.0894 28.908 15.1752 29.1521C15.2609 29.3962 15.2917 29.6562 15.2652 29.9136C15.2564 30.3258 15.0888 30.7187 14.7972 31.0103C14.5057 31.3018 14.1128 31.4695 13.7005 31.4783C13.412 31.5056 13.1215 31.4527 12.861 31.3256C12.5069 31.1624 12.2227 30.8782 12.0595 30.5242C11.9342 30.3311 11.8679 30.1057 11.8687 29.8754Z" fill="#001C3C"/>
<path fill-rule="evenodd" clip-rule="evenodd" d="M23.8135 29.6839C23.8135 31.0959 24.4622 32.2408 25.7979 32.7369C26.4038 32.966 27.0579 33.0372 27.6989 32.9438C28.3398 32.8503 28.9464 32.5952 29.4615 32.2026L29.7287 31.9354C30.1103 31.5538 29.9195 31.4775 29.4997 31.134C28.9273 30.7142 28.9654 30.6761 28.5838 31.0195C27.7061 31.8591 25.8743 31.6683 25.569 30.2945C26.0269 30.2945 26.4085 30.3326 26.8665 30.3326H28.8509C29.0799 30.3326 29.1562 30.2945 29.3852 30.2945C30.2248 30.2945 30.1866 30.4089 30.1866 29.5694C30.1689 29.1376 30.0786 28.7118 29.9195 28.31C29.7387 27.8754 29.4497 27.4944 29.0799 27.2033C28.6813 26.8863 28.2085 26.6761 27.7061 26.5927C27.0237 26.477 26.3226 26.5564 25.6834 26.8217C25.3346 26.9886 25.0129 27.2073 24.7294 27.4704L24.3859 27.8902C24.0318 28.4231 23.8335 29.0443 23.8135 29.6839ZM26.9428 28.0047C27.5534 28.0047 28.0495 28.081 28.393 28.7298C28.4887 28.8779 28.5416 29.0496 28.5456 29.2259H25.569C25.655 28.9259 25.8121 28.651 26.0269 28.4245C26.1437 28.2968 26.285 28.1939 26.4423 28.1218C26.5996 28.0497 26.7698 28.0099 26.9428 28.0047Z" fill="#001C3C"/>
<path fill-rule="evenodd" clip-rule="evenodd" d="M17.8983 27.0506C17.8983 28.2337 17.7456 28.1192 19.2721 28.1192H21.0276C20.9894 28.2719 20.7605 28.4245 20.646 28.539L19.6156 29.6457C19.0813 30.2563 18.5089 30.8287 17.9746 31.4012C17.7838 31.6302 17.8601 32.2026 17.8601 32.6224C17.8673 32.6645 17.885 32.7042 17.9117 32.7375C17.9384 32.7709 17.9732 32.797 18.0128 32.8132C18.1109 32.8465 18.2148 32.8595 18.3181 32.8514H23.0884C23.241 32.8514 23.4318 32.775 23.47 32.6606C23.5273 32.3067 23.5273 31.9459 23.47 31.592C23.4318 31.4394 23.3555 31.4012 23.1647 31.4012C22.8594 31.4012 22.5159 31.363 22.1725 31.363H20.1117L21.4092 29.9892C21.5619 29.8365 21.6764 29.6839 21.829 29.5312L22.058 29.3022C22.1343 29.2259 22.1725 29.1496 22.2488 29.0733L23.1265 28.1574C23.3174 27.9284 23.2792 27.6613 23.2792 27.2796C23.2855 27.1386 23.2726 26.9974 23.241 26.8598C23.2029 26.7072 23.1647 26.6309 22.9739 26.6309H18.2036C18.1123 26.6552 18.0321 26.7102 17.9765 26.7867C17.921 26.8631 17.8933 26.9563 17.8983 27.0506Z" fill="#001C3C"/>
<path fill-rule="evenodd" clip-rule="evenodd" d="M13.3569 12.5111C12.2884 12.969 13.7767 14.5337 14.1202 14.8008C18.4707 18.6934 23.3937 13.0835 21.6 12.4729C20.9894 12.2821 20.7986 12.9309 20.5697 13.2743C20.2229 13.7752 19.7592 14.1838 19.2188 14.4649C18.6784 14.7459 18.0775 14.8909 17.4684 14.8871C16.8593 14.8833 16.2603 14.731 15.7233 14.4433C15.1864 14.1556 14.7278 13.7412 14.3873 13.2362C14.1583 12.9309 13.9675 12.2439 13.3569 12.5111Z" fill="#001C3C"/>
<path fill-rule="evenodd" clip-rule="evenodd" d="M13.3569 7.54972C11.7541 8.084 12.67 10.3738 14.1583 9.87764C15.6467 9.38153 14.8834 7.01545 13.3569 7.54972Z" fill="#001C3C"/>
<path fill-rule="evenodd" clip-rule="evenodd" d="M20.8369 7.54959C20.5319 7.65379 20.2804 7.87396 20.1366 8.16237C19.9929 8.45079 19.9686 8.78423 20.069 9.09045C20.1694 9.39666 20.3864 9.65098 20.673 9.7983C20.9596 9.94562 21.2927 9.97408 21.6001 9.87751C21.8961 9.77521 22.1428 9.5654 22.2912 9.28969C22.4397 9.01399 22.4791 8.69255 22.4016 8.38916C22.3539 8.2313 22.2757 8.08435 22.1713 7.95672C22.0669 7.82908 21.9384 7.72327 21.7931 7.6453C21.6478 7.56734 21.4886 7.51876 21.3245 7.50234C21.1604 7.48591 20.9948 7.50197 20.8369 7.54959Z" fill="#001C3C"/>
</svg>
