<svg width="42" height="45" viewBox="0 0 42 45" fill="none" xmlns="http://www.w3.org/2000/svg">
<path d="M40.2857 18.0658C39.586 16.9909 38.6414 16.0746 37.5394 15.4226L14.2566 1.85469C14.1516 1.78421 14.0467 1.73135 13.9242 1.67848C12.7872 1.07938 11.4927 0.762207 10.2158 0.762207C9.95337 0.762207 9.69098 0.762207 9.44608 0.797448C5.28281 1.20273 2.13412 4.72687 2.13412 8.93822V36.1094C2.13412 39.0344 3.69098 41.7304 6.19243 43.1929C8.69389 44.6554 11.7726 44.6554 14.2741 43.1929L14.9038 42.8229L27.7609 35.3164L37.5394 29.6073C38.9913 28.7615 40.1283 27.4928 40.8105 25.9951C42 23.4225 41.8076 20.4622 40.2857 18.0834" fill="#215E9C"/>
<path d="M12.8921 1.71362C9.81341 0.127752 6.13994 0.656374 3.67347 3.10565C3.56852 3.21138 3.34111 3.45807 3.25365 3.56379L3.1312 3.74L2.86881 4.07479C2.15161 5.07917 1.66181 6.27738 1.50438 7.51083C1.50438 7.61656 1.4519 7.93373 1.4519 8.02184C1.4519 8.0747 1.4519 8.26853 1.4519 8.32139C1.4519 10.0835 1.59184 16.145 1.60933 18.0128C1.6793 22.7175 1.71429 27.4399 1.71429 32.1446V35.6687C1.71429 36.726 1.94169 37.7832 2.3965 38.7347C3.98834 42.2413 8.15161 43.9152 11.7026 42.4527C12.1924 42.2413 12.6997 41.9593 13.172 41.695L12.8047 42.2941C12.8047 42.1884 12.8397 42.0474 12.9096 41.9417C12.9796 41.8184 13.0846 41.7303 13.172 41.6774L13.8367 42.9637C12.9796 43.369 12.3499 42.1708 13.1545 41.6774C16.9155 39.5453 20.7114 37.4308 24.5073 35.3516C28.3032 33.2547 32.1166 31.2107 35.965 29.2019C32.3265 31.5807 28.6706 33.8714 24.9796 36.1621C21.3061 38.4528 17.5977 40.7083 13.8892 42.9461L13.207 41.6598L13.8717 42.9461C14.0641 42.858 14.2566 42.5408 14.2566 42.3294L13.8892 42.9285C11.7026 44.391 9.18368 44.9196 6.61225 44.25C2.83382 43.3161 2.97278e-06 39.6334 0.0349884 35.6687V32.127C0.0349884 27.4222 0.0874665 22.6999 0.157437 17.9952C0.209916 16.0745 0.244901 10.0835 0.349857 8.25091V8.02184L0.36735 7.89849V7.77515L0.454813 7.31701C1.52187 1.53741 8.06414 -1.42287 12.8921 1.71362Z" fill="white"/>
<path d="M12.9096 42.6819C19.207 38.8406 26.8688 34.2592 33.3936 30.4003C33.9359 30.0831 35.3528 29.2373 35.8776 28.9378C37.207 28.1448 38.2916 26.929 38.9388 25.5194L39.0787 25.907C38.9388 25.8542 38.8688 25.6956 38.9213 25.5546C39.7609 23.7573 39.9009 21.6428 39.2886 19.7574C38.6764 17.872 37.3469 16.2685 35.6152 15.317C34.2682 14.524 30.6997 12.4095 29.3178 11.599C25.137 9.13209 16.723 4.07494 12.5773 1.55518C15.0262 2.89435 18.6123 4.93835 21.0962 6.33039C23.93 7.9515 31.0846 12.0219 33.7959 13.6077C35.0554 14.3654 36.9096 15.2465 37.9067 16.3566C40.3207 18.8059 40.9679 22.6824 39.4811 25.7837C39.4811 25.7837 39.3236 25.3784 39.3411 25.396C39.4986 25.4489 39.5685 25.6427 39.4811 25.7837C38.7813 27.2991 37.6093 28.603 36.1749 29.4488L35.3353 29.9245C34.2682 30.5413 31.4169 32.1976 30.3149 32.8143C24.9271 35.898 18.1924 39.7745 12.9096 42.6996" fill="white"/>
</svg>
