<svg width="22" height="21" viewBox="0 0 22 21" fill="none" xmlns="http://www.w3.org/2000/svg">
<path d="M18.3447 0.533203H15.5869C15.3431 0.533203 15.1093 0.630054 14.9369 0.80245C14.7645 0.974846 14.6677 1.20867 14.6677 1.45247C14.6677 1.69627 14.7645 1.93009 14.9369 2.10249C15.1093 2.27489 15.3431 2.37174 15.5869 2.37174H18.3447C18.5885 2.37174 18.8224 2.46859 18.9947 2.64098C19.1671 2.81338 19.264 3.0472 19.264 3.291V6.0488C19.264 6.29261 19.3608 6.52643 19.5332 6.69882C19.7056 6.87122 19.9395 6.96807 20.1833 6.96807C20.4271 6.96807 20.6609 6.87122 20.8333 6.69882C21.0057 6.52643 21.1025 6.29261 21.1025 6.0488V3.291C21.1025 1.76801 19.8677 0.533203 18.3447 0.533203ZM6.39426 0.533203H3.63646C2.11347 0.533203 0.878662 1.76801 0.878662 3.291V6.0488C0.878662 6.29261 0.975513 6.52643 1.14791 6.69882C1.3203 6.87122 1.55412 6.96807 1.79793 6.96807C2.04173 6.96807 2.27555 6.87122 2.44795 6.69882C2.62034 6.52643 2.7172 6.29261 2.7172 6.0488V3.291C2.7172 3.0472 2.81405 2.81338 2.98644 2.64098C3.15884 2.46859 3.39266 2.37174 3.63646 2.37174H6.39426C6.63807 2.37174 6.87189 2.27489 7.04428 2.10249C7.21668 1.93009 7.31353 1.69627 7.31353 1.45247C7.31353 1.20867 7.21668 0.974846 7.04428 0.80245C6.87189 0.630054 6.63807 0.533203 6.39426 0.533203ZM20.1833 14.3222C19.9395 14.3222 19.7056 14.4191 19.5332 14.5914C19.3608 14.7638 19.264 14.9977 19.264 15.2415V17.9993C19.264 18.5072 18.8526 18.9185 18.3447 18.9185H15.5869C15.3431 18.9185 15.1093 19.0154 14.9369 19.1878C14.7645 19.3602 14.6677 19.594 14.6677 19.8378C14.6677 20.0816 14.7645 20.3154 14.9369 20.4878C15.1093 20.6602 15.3431 20.7571 15.5869 20.7571H18.3447C19.8677 20.7571 21.1025 19.5223 21.1025 17.9993V15.2415C21.1025 14.9977 21.0057 14.7638 20.8333 14.5914C20.6609 14.4191 20.4271 14.3222 20.1833 14.3222ZM6.39426 18.9185H3.63646C3.39266 18.9185 3.15884 18.8217 2.98644 18.6493C2.81405 18.4769 2.7172 18.2431 2.7172 17.9993V15.2415C2.71912 15.1195 2.69677 14.9984 2.65145 14.8852C2.60612 14.772 2.53872 14.669 2.45318 14.5821C2.36764 14.4952 2.26566 14.4262 2.15319 14.379C2.04071 14.3319 1.91999 14.3077 1.79804 14.3077C1.6761 14.3077 1.55538 14.3319 1.4429 14.379C1.33043 14.4262 1.22845 14.4952 1.14291 14.5821C1.05736 14.669 0.989966 14.772 0.94464 14.8852C0.899314 14.9984 0.876964 15.1195 0.878892 15.2415V17.9993C0.878892 19.5223 2.1137 20.7571 3.63669 20.7571H6.39449C6.6383 20.757 6.8721 20.6602 7.04448 20.4877C7.21685 20.3153 7.31367 20.0815 7.31364 19.8377C7.31361 19.5939 7.21673 19.3601 7.04432 19.1877C6.8719 19.0153 6.63807 18.9185 6.39426 18.9185Z" fill="white"/>
</svg>
